<svg version="1.1" id="Layer_1" xmlns="http://www.w3.org/2000/svg" x="0" y="0" viewBox="0 0 66.7 214.3" style="enable-background:new 0 0 66.7 214.3" xml:space="preserve"><path d="M0 49.9s3 9.4 13.9 8.1L36 50.6l5-1.4 1.6-.3c4.6 0 8.4 3.7 8.4 8.4 0 2.3-.9 4.4-2.5 5.9-8.4 10.4-32.3 23.1-32.3 48.8 0 39.2 44.2 41.4 44.2 70.8 0 14.4-10.2 23.6-20.8 23.6-7.4 0-9.6-2-10-2.4v-.1c5.3.4 10.2-2.2 12.5-6.6 2.6-5 .5-10.2.3-10.5-.5-1-1.5-2.9-3.4-4.4-3-2.4-7.1-3.2-10.5-2.4-5.8 1.4-9.1 7-10 11.4-1.7 8.5 4.9 16.4 10.6 19.8 0 0 7 4.2 19.5 2.9 9.6-1 17.5-5.4 17.5-5.4l.2-.1c.1-.1.3-.2.4-.2V112h-.1.1V4.2C61.7 1.6 55.4 0 48.1 0 36.8 0 31.7 3.3 31.7 3.3v2.9C31.5 29 17.4 44.8 0 49.9zm32.1-14.2c0-2.1 1.7-3.8 3.8-3.8 2.1 0 3.8 1.7 3.8 3.8 0 2.1-1.7 3.8-3.8 3.8-2.1-.1-3.8-1.8-3.8-3.8z" style="fill:#e0143d"/></svg>